# xmcd
#
# Track frame offsets:
#	150
#	9120
#	20457
#	32690
#	48605
#	60735
#	75892
#	97920
#	111347
#	121545
#	134360
#	145322
#	155707
#	167537
#	181752
#	196255
#	207505
#	223952
#
# Disc length: 3145 seconds
# Revision: 0
# Processed by: cddbd v1.5.2PL0 Copyright (c) Steve Scherf et al.
# Submitted via: dBpowerAMP V12.0
#
DISCID=ed0c4712
DTITLE=Various Artist - Hour Glass
DYEAR=1967
DGENRE=Bluesrock
TTITLE0=Hour Glass - Out of the Night
TTITLE1=Hour Glass, The - Nothing But Tears
TTITLE2=Hour Glass, The - Love Makes the World Go 'Round
TTITLE3=Hour Glass, The - Cast off All My Fears
TTITLE4=Hour Glass, The - I've Been Trying
TTITLE5=Hour Glass, The - No Easy Way Down
TTITLE6=Hour Glass, The - Heartbeat
TTITLE7=Hour Glass, The - So Much Love
TTITLE8=Hour Glass, The - Got to Get Away
TTITLE9=Hour Glass, The - Silently
TTITLE10=Hour Glass, The - Bells [Bonus]
TTITLE11=Hour Glass, The - In a Time [Bonus]
TTITLE12=Hour Glass, The - I've Been Trying [Bonus]
TTITLE13=Hour Glass, The - Kind of a Man [Bonus]
TTITLE14=Hour Glass, The - D-I-V-O-R-C-E [Bonus]
TTITLE15=Hour Glass, The - She Is My Woman [Bonus]
TTITLE16=Hour Glass, The - Bad Dream [Bonus]
TTITLE17=Hour Glass, The - Three Time Loser [Bonus]
EXTD=
EXTT0=
EXTT1=
EXTT2=
EXTT3=
EXTT4=
EXTT5=
EXTT6=
EXTT7=
EXTT8=
EXTT9=
EXTT10=
EXTT11=
EXTT12=
EXTT13=
EXTT14=
EXTT15=
EXTT16=
EXTT17=
PLAYORDER=
